<svg width="64" height="64" viewBox="0 0 64 64" fill="none" xmlns="http://www.w3.org/2000/svg">
<path d="M41.3 14.6562C44.561 14.6563 47.2943 16.9069 48.0354 19.9395L63.051 22.5449L48.2356 22.2295L48.2102 22.1357C48.2078 22.1656 48.207 22.1959 48.2043 22.2256C48.1622 22.2253 48.1196 22.2246 48.0774 22.2246C42.8476 22.2247 38.3902 24.1145 36.6838 26.7646C35.2615 25.4947 34.3646 23.6477 34.3645 21.5908C34.3647 17.7608 37.47 14.6563 41.3 14.6562Z" fill="black"/>
<path d="M40.5115 28.8477C45.2993 28.8477 49.1804 32.7288 49.1804 37.5166C49.1803 42.1503 45.5448 45.9332 40.9705 46.1719L40.9841 46.1904C29.6358 46.8211 24.9074 56.4355 22.3855 60.376L32.3152 34.6836L32.3171 34.6865C33.4904 31.2886 36.7148 28.8477 40.5115 28.8477Z" fill="black"/>
<path d="M28.4685 3.63086V31.0527C28.4363 31.0531 28.4041 31.0533 28.3718 31.0537C28.2751 38.5439 22.175 44.5859 14.6619 44.5859C7.08843 44.5859 0.948975 38.4465 0.948975 30.873C0.948975 30.8212 0.950354 30.7695 0.950928 30.7178H8.79761C8.78319 30.7035 8.76804 30.6892 8.75366 30.6748C3.39904 25.3196 3.39886 16.6373 8.75366 11.2822C8.7909 11.245 8.82938 11.2086 8.86694 11.1719L14.6042 16.9092C14.8332 9.53637 20.882 3.62901 28.3103 3.62891C28.363 3.62891 28.4159 3.63026 28.4685 3.63086Z" fill="black"/>
</svg>
