<svg xmlns="http://www.w3.org/2000/svg" version="1.1" xmlns:xlink="http://www.w3.org/1999/xlink" width="64" height="64"><svg xmlns="http://www.w3.org/2000/svg" version="1.1" xmlns:xlink="http://www.w3.org/1999/xlink" width="64" height="64"><svg width="64" height="64" viewBox="0 0 64 64" fill="none" xmlns="http://www.w3.org/2000/svg">
<path d="M40.386 16.3633C43.3264 16.3633 45.7908 18.3934 46.4592 21.1279L60.0002 23.4775L46.6399 23.1934L46.6174 23.1113C46.6154 23.1367 46.6148 23.1622 46.6125 23.1875C46.5745 23.1873 46.5364 23.1865 46.4983 23.1865C41.7813 23.1865 37.761 24.8917 36.2229 27.2822C34.9406 26.137 34.1321 24.4718 34.1321 22.6172C34.1322 19.1634 36.9322 16.3633 40.386 16.3633Z" fill="black"></path>
<path d="M39.6748 29.1562C43.9921 29.1562 47.4921 32.6564 47.4922 36.9736C47.4922 41.1519 44.2144 44.5637 40.0898 44.7793L40.1016 44.7949C29.8682 45.3636 25.6042 54.0336 23.3301 57.5869L32.2842 34.4189L32.2861 34.4209C33.3444 31.3575 36.2518 29.1564 39.6748 29.1562Z" fill="black"></path>
<path d="M28.8152 6.41504V31.1426C28.7867 31.1429 28.7578 31.1431 28.7292 31.1436C28.6437 37.8992 23.1409 43.3495 16.365 43.3496C9.53599 43.3495 4.0001 37.8133 3.99976 30.9844C3.99976 30.938 4.00022 30.891 4.00073 30.8447H11.0769C11.064 30.8319 11.0507 30.8195 11.0378 30.8066C6.20879 25.9776 6.20977 18.1474 11.0388 13.3184C11.0721 13.285 11.1058 13.2516 11.1394 13.2188L16.3132 18.3926C16.5174 11.7422 21.9727 6.41419 28.6726 6.41406C28.72 6.41406 28.7679 6.41451 28.8152 6.41504Z" fill="black"></path>
</svg></svg><style>@media (prefers-color-scheme: light) { :root { filter: none; } }
@media (prefers-color-scheme: dark) { :root { filter: invert(100%); } }
</style></svg>